# File units = meters
mtllib 扇形2.mtl
g Part 1
v 0 0 0 
v -0.0496899 -0.0105619 -1.35745e-17 
v -0.0505217 -0.00531005 -1.38018e-17 
v -0.0377518 -0.0339918 -1.03132e-17 
v -0.0410981 -0.0298595 -1.12274e-17 
v -0.0483137 -0.0156981 -1.31986e-17 
v -0.0439941 -0.0254 -1.20185e-17 
v -0.0464081 -0.0206622 -1.2678e-17 
v -0.0339918 -0.0377518 -9.28605e-18 
v -0.0298595 -0.0410981 -8.15716e-18 
v -0.0105619 -0.0496899 -2.88535e-18 
v -0.0156981 -0.0483137 -4.28847e-18 
v -0.0206622 -0.0464081 -5.6446e-18 
v -0.0254 -0.0439941 -6.93889e-18 
v -0.00531005 -0.0505217 -1.45062e-18 
v 0 -0.0508 0 
v -0.0508 0 -3.46945e-18 
v 0 0 0.0508 
v 0 -0.0508 0.0508 
v -0.0508 0 0.0508 
v -0.0505217 -0.00531005 0.0508 
v -0.0496899 -0.0105619 0.0508 
v -0.0483137 -0.0156981 0.0508 
v -0.0464081 -0.0206622 0.0508 
v -0.0439941 -0.0254 0.0508 
v -0.0410981 -0.0298595 0.0508 
v -0.0377518 -0.0339918 0.0508 
v -0.0339918 -0.0377518 0.0508 
v -0.0298595 -0.0410981 0.0508 
v -0.0254 -0.0439941 0.0508 
v -0.0206622 -0.0464081 0.0508 
v -0.0156981 -0.0483137 0.0508 
v -0.0105619 -0.0496899 0.0508 
v -0.00531005 -0.0505217 0.0508 
vn 0 0 -1 
vn 1 0 0 
vn 0 1 0 
vn -1 1.22465e-16 -2.73185e-16 
vn -0.994522 -0.104528 -2.71688e-16 
vn -0.978148 -0.207912 -2.67215e-16 
vn -0.951057 -0.309017 -2.59814e-16 
vn -0.913545 -0.406737 -2.49567e-16 
vn -0.866025 -0.5 -2.36585e-16 
vn -0.809017 -0.587785 -2.21011e-16 
vn -0.743145 -0.669131 -2.03016e-16 
vn -0.669131 -0.743145 -1.82796e-16 
vn -0.587785 -0.809017 -1.60574e-16 
vn -0.5 -0.866025 -1.36592e-16 
vn -0.406737 -0.913545 -1.11114e-16 
vn -0.309017 -0.951057 -8.44187e-17 
vn -0.207912 -0.978148 -5.67983e-17 
vn -0.104528 -0.994522 -2.85556e-17 
vn -1.83697e-16 -1 -5.01832e-32 
vn 0 0 1 
usemtl 0.615686_0.811765_0.929412_0.000000_0.000000
o mesh0
f 1//1 2//1 3//1 
f 1//1 4//1 5//1 
f 1//1 6//1 2//1 
f 1//1 7//1 8//1 
f 1//1 9//1 4//1 
f 8//1 6//1 1//1 
f 1//1 10//1 9//1 
f 1//1 11//1 12//1 
f 5//1 7//1 1//1 
f 1//1 13//1 14//1 
f 1//1 15//1 11//1 
f 14//1 10//1 1//1 
f 1//1 16//1 15//1 
f 12//1 13//1 1//1 
f 3//1 17//1 1//1 
o mesh1
f 16//2 1//2 18//2 
f 18//2 19//2 16//2 
o mesh2
f 1//3 17//3 20//3 
f 20//3 18//3 1//3 
o mesh3
f 20//4 17//4 3//5 
f 21//5 3//5 2//6 
f 22//6 2//6 6//7 
f 23//7 6//7 8//8 
f 24//8 8//8 7//9 
f 25//9 7//9 5//10 
f 26//10 5//10 4//11 
f 27//11 4//11 9//12 
f 28//12 9//12 10//13 
f 29//13 10//13 14//14 
f 30//14 14//14 13//15 
f 31//15 13//15 12//16 
f 32//16 12//16 11//17 
f 33//17 11//17 15//18 
f 34//18 15//18 16//19 
f 16//19 19//19 34//18 
f 15//18 34//18 33//17 
f 11//17 33//17 32//16 
f 12//16 32//16 31//15 
f 13//15 31//15 30//14 
f 14//14 30//14 29//13 
f 10//13 29//13 28//12 
f 9//12 28//12 27//11 
f 4//11 27//11 26//10 
f 5//10 26//10 25//9 
f 7//9 25//9 24//8 
f 8//8 24//8 23//7 
f 6//7 23//7 22//6 
f 2//6 22//6 21//5 
f 3//5 21//5 20//4 
o mesh4
f 18//20 27//20 28//20 
f 18//20 26//20 27//20 
f 18//20 29//20 30//20 
f 18//20 25//20 26//20 
f 18//20 32//20 33//20 
f 28//20 29//20 18//20 
f 18//20 23//20 24//20 
f 18//20 21//20 22//20 
f 18//20 31//20 32//20 
f 24//20 25//20 18//20 
f 18//20 20//20 21//20 
f 33//20 34//20 18//20 
f 22//20 23//20 18//20 
f 30//20 31//20 18//20 
f 34//20 19//20 18//20 
